<?xml version="1.0" encoding="iso-8859-1"?>
<!-- Generator: Adobe Illustrator 19.0.0, SVG Export Plug-In . SVG Version: 6.00 Build 0)  -->
<svg version="1.1" id="Capa_1" xmlns="http://www.w3.org/2000/svg" xmlns:xlink="http://www.w3.org/1999/xlink" x="0px" y="0px"
	 viewBox="0 0 480 480" style="enable-background:new 0 0 480 480;" xml:space="preserve">
<g>
	<g>
		<path d="M416,32h-32V0H272v32h-64V0H96v32H64c-13.255,0-24,10.745-24,24v400c0,13.255,10.745,24,24,24h352
			c13.255,0,24-10.745,24-24V56C440,42.745,429.255,32,416,32z M288,16h80v16h-80V16z M112,16h80v16h-80V16z M280,464h-80v-8
			c0-4.418,3.582-8,8-8h64c4.418,0,8,3.582,8,8V464z M424,453.52c-0.004,5.786-4.694,10.476-10.48,10.48H296v-8
			c0-13.255-10.745-24-24-24h-64c-13.255,0-24,10.745-24,24v8H66.48c-5.786-0.004-10.476-4.694-10.48-10.48V416h368V453.52z
			 M424,400H56V144h368V400z M424,128H56V56c0-4.418,3.582-8,8-8h352c4.418,0,8,3.582,8,8V128z"/>
	</g>
</g>
<g>
	<g>
		<path d="M344,64h-16c-4.418,0-8,3.582-8,8s3.582,8,8,8h16c4.418,0,8-3.582,8-8S348.418,64,344,64z"/>
	</g>
</g>
<g>
	<g>
		<path d="M384,64h-16c-4.418,0-8,3.582-8,8s3.582,8,8,8h16c4.418,0,8-3.582,8-8S388.418,64,384,64z"/>
	</g>
</g>
<g>
	<g>
		<path d="M344,96h-16c-4.418,0-8,3.582-8,8s3.582,8,8,8h16c4.418,0,8-3.582,8-8S348.418,96,344,96z"/>
	</g>
</g>
<g>
	<g>
		<path d="M384,96h-16c-4.418,0-8,3.582-8,8s3.582,8,8,8h16c4.418,0,8-3.582,8-8S388.418,96,384,96z"/>
	</g>
</g>
<g>
	<g>
		<path d="M200,64h-16c-4.418,0-8,3.582-8,8s3.582,8,8,8h16c4.418,0,8-3.582,8-8S204.418,64,200,64z"/>
	</g>
</g>
<g>
	<g>
		<path d="M160,64h-16c-4.418,0-8,3.582-8,8s3.582,8,8,8h16c4.418,0,8-3.582,8-8S164.418,64,160,64z"/>
	</g>
</g>
<g>
	<g>
		<path d="M200,96h-16c-4.418,0-8,3.582-8,8s3.582,8,8,8h16c4.418,0,8-3.582,8-8S204.418,96,200,96z"/>
	</g>
</g>
<g>
	<g>
		<path d="M160,96h-16c-4.418,0-8,3.582-8,8s3.582,8,8,8h16c4.418,0,8-3.582,8-8S164.418,96,160,96z"/>
	</g>
</g>
<g>
	<g>
		<path d="M376,160H104c-4.418,0-8,3.582-8,8v208c0,4.418,3.582,8,8,8h272c4.418,0,8-3.582,8-8V168C384,163.582,380.418,160,376,160
			z M368,368H112v-16h256V368z M368,336H112V176h256V336z"/>
	</g>
</g>
<g>
	<g>
		<path d="M328.968,260.288l-45.248-45.256c-3.07-3.178-8.134-3.266-11.312-0.196c-3.178,3.069-3.266,8.134-0.196,11.312
			c0.064,0.067,0.13,0.132,0.196,0.196l45.248,45.256c3.178,3.07,8.242,2.982,11.312-0.196
			C331.963,268.304,331.963,263.388,328.968,260.288z"/>
	</g>
</g>
<g>
	<g>
		<path d="M351.592,237.656L351.592,237.656L306.344,192.4c-3.069-3.178-8.134-3.266-11.312-0.196
			c-3.178,3.069-3.266,8.134-0.196,11.312c0.064,0.067,0.13,0.132,0.196,0.196l45.248,45.256c3.178,3.07,8.242,2.982,11.312-0.196
			C354.586,245.671,354.586,240.756,351.592,237.656z"/>
	</g>
</g>
<g>
	<g>
		<path d="M96,64c-13.255,0-24,10.745-24,24s10.745,24,24,24s24-10.745,24-24S109.255,64,96,64z M96,96c-4.418,0-8-3.582-8-8
			s3.582-8,8-8s8,3.582,8,8S100.418,96,96,96z"/>
	</g>
</g>
<g>
	<g>
		<path d="M280,64c-13.255,0-24,10.745-24,24s10.745,24,24,24s24-10.745,24-24S293.255,64,280,64z M280,96c-4.418,0-8-3.582-8-8
			s3.582-8,8-8s8,3.582,8,8S284.418,96,280,96z"/>
	</g>
</g>
<g>
</g>
<g>
</g>
<g>
</g>
<g>
</g>
<g>
</g>
<g>
</g>
<g>
</g>
<g>
</g>
<g>
</g>
<g>
</g>
<g>
</g>
<g>
</g>
<g>
</g>
<g>
</g>
<g>
</g>
</svg>
