<?xml version="1.0" encoding="iso-8859-1"?>
<!-- Generator: Adobe Illustrator 19.0.0, SVG Export Plug-In . SVG Version: 6.00 Build 0)  -->
<svg version="1.1" id="Capa_1" xmlns="http://www.w3.org/2000/svg" xmlns:xlink="http://www.w3.org/1999/xlink" x="0px" y="0px"
	 viewBox="0 0 480 480" style="enable-background:new 0 0 480 480;" xml:space="preserve">
<g>
	<g>
		<path d="M280,268h8c35.289,0,64-28.711,64-64c0-32.574-24.48-59.487-56-63.444V124c0-4.422-3.578-8-8-8h-48c-4.422,0-8,3.578-8,8
			v16h-16v-16c0-4.422-3.578-8-8-8h-48c-4.422,0-8,3.578-8,8v16h-16v-16c0-4.422-3.578-8-8-8H80c-4.422,0-8,3.578-8,8v16
			c-35.289,0-64,28.711-64,64s28.711,64,64,64h16v8H24v16h312v-16h-56V268z M248,132h32v8h-32V132z M168,132h32v8h-32V132z M88,132
			h32v8H88V132z M72,252c-26.469,0-48-21.531-48-48s21.531-48,48-48h216c26.469,0,48,21.531,48,48s-21.531,48-48,48H72z M176,276
			h-72v-8h72V276z M264,276h-72v-8h72V276z"/>
	</g>
</g>
<g>
	<g>
		<path d="M104,300c-8.044,0-15.316,3.083-20.944,8H52.944c-5.627-4.917-12.899-8-20.944-8c-17.648,0-32,14.352-32,32
			s14.352,32,32,32c8.044,0,15.316-3.083,20.944-8h30.112c5.627,4.917,12.899,8,20.944,8c17.648,0,32-14.352,32-32
			S121.648,300,104,300z M32,348c-8.82,0-16-7.18-16-16s7.18-16,16-16s16,7.18,16,16S40.82,348,32,348z M73.136,340H62.864
			c0.668-2.572,1.136-5.221,1.136-8s-0.467-5.428-1.136-8h10.271c-0.668,2.572-1.136,5.221-1.136,8S72.467,337.428,73.136,340z
			 M104,348c-8.82,0-16-7.18-16-16s7.18-16,16-16s16,7.18,16,16S112.82,348,104,348z"/>
	</g>
</g>
<g>
	<g>
		<path d="M472,244h-8v-24h8c2.57,0,4.984-1.234,6.492-3.32c1.5-2.086,1.914-4.773,1.094-7.211l-8-24
			C470.5,182.203,467.445,180,464,180h-72c-4.422,0-8,3.578-8,8v96v24h-16h-32h-27.056c-5.627-4.917-12.899-8-20.944-8
			c-17.648,0-32,14.352-32,32s14.352,32,32,32c8.044,0,15.316-3.083,20.944-8H336h32h27.056c5.627,4.917,12.899,8,20.944,8
			c14.87,0,27.288-10.236,30.864-24H472c4.422,0,8-3.578,8-8v-48v-32C480,247.578,476.422,244,472,244z M288,348
			c-8.82,0-16-7.18-16-16s7.18-16,16-16s16,7.18,16,16S296.82,348,288,348z M328,340h-9.136c0.668-2.572,1.136-5.221,1.136-8
			s-0.467-5.428-1.136-8H328V340z M360,340h-16v-16h16V340z M376,340v-16h8v8c0,2.779,0.467,5.428,1.136,8H376z M416,348
			c-8.82,0-16-7.18-16-16s7.18-16,16-16s16,7.18,16,16S424.82,348,416,348z M464,324h-17.136c-3.577-13.764-15.995-24-30.864-24
			c-5.855,0-11.274,1.694-16,4.45V292h64V324z M464,276h-64v-80h58.234l2.664,8H456h-32c-4.422,0-8,3.578-8,8v40
			c0,4.422,3.578,8,8,8h32h8V276z M448,220v24h-16v-24H448z"/>
	</g>
</g>
<g>
	<g>
		<rect x="152" y="308" width="88" height="16"/>
	</g>
</g>
<g>
	<g>
		<rect x="152" y="340" width="88" height="16"/>
	</g>
</g>
<g>
	<g>
		<path d="M222.641,182.93l-8-13.859l-15.152,8.75c-4.192-3.577-9.558-5.82-15.488-5.82s-11.296,2.243-15.488,5.82l-15.152-8.75
			l-8,13.859l15.082,8.708C160.179,193.057,160,194.507,160,196c0,10.416,6.708,19.212,16,22.525V236h16v-17.474
			c9.292-3.313,16-12.11,16-22.526c0-1.494-0.179-2.943-0.441-4.362L222.641,182.93z M184,204c-4.414,0-8-3.586-8-8s3.586-8,8-8
			s8,3.586,8,8S188.414,204,184,204z"/>
	</g>
</g>
<g>
</g>
<g>
</g>
<g>
</g>
<g>
</g>
<g>
</g>
<g>
</g>
<g>
</g>
<g>
</g>
<g>
</g>
<g>
</g>
<g>
</g>
<g>
</g>
<g>
</g>
<g>
</g>
<g>
</g>
</svg>
