<?xml version="1.0" encoding="iso-8859-1"?>
<!-- Generator: Adobe Illustrator 19.0.0, SVG Export Plug-In . SVG Version: 6.00 Build 0)  -->
<svg version="1.1" id="Capa_1" xmlns="http://www.w3.org/2000/svg" xmlns:xlink="http://www.w3.org/1999/xlink" x="0px" y="0px"
	 viewBox="0 0 480 480" style="enable-background:new 0 0 480 480;" xml:space="preserve">
<g>
	<g>
		<g>
			<path d="M44,0v480h392V0H44z M60,16h80v64H60V16z M420,464H60v-32h360V464z M420,416H60V96h360V416z M420,80H156V16h264V80z"/>
			<rect x="76" y="40" width="16" height="16"/>
			<rect x="108" y="40" width="16" height="16"/>
			<path d="M188,72c13.255,0,24-10.745,24-24s-10.745-24-24-24s-24,10.745-24,24S174.745,72,188,72z M188,40c4.418,0,8,3.582,8,8
				s-3.582,8-8,8s-8-3.582-8-8S183.582,40,188,40z"/>
			<rect x="228" y="40" width="144" height="16"/>
			<rect x="388" y="40" width="16" height="16"/>
			<path d="M244,400c79.529,0,144-64.471,144-144s-64.471-144-144-144s-144,64.471-144,144C100.093,335.491,164.509,399.907,244,400
				z M244,128c70.692,0,128,57.308,128,128s-57.308,128-128,128s-128-57.308-128-128C116.084,185.342,173.342,128.084,244,128z"/>
			<path d="M244,368c61.856,0,112-50.144,112-112s-50.144-112-112-112s-112,50.144-112,112C132.066,317.828,182.172,367.934,244,368
				z M244,160c53.019,0,96,42.981,96,96s-42.981,96-96,96s-96-42.981-96-96C148.057,203.004,191.004,160.057,244,160z"/>
			<rect x="388" y="440" width="16" height="16"/>
			<rect x="356" y="440" width="16" height="16"/>
			<rect x="76" y="440" width="16" height="16"/>
			<rect x="76" y="136" width="16" height="16"/>
			<rect x="76" y="112" width="16" height="16"/>
			<rect x="100" y="112" width="16" height="16"/>
		</g>
	</g>
</g>
<g>
</g>
<g>
</g>
<g>
</g>
<g>
</g>
<g>
</g>
<g>
</g>
<g>
</g>
<g>
</g>
<g>
</g>
<g>
</g>
<g>
</g>
<g>
</g>
<g>
</g>
<g>
</g>
<g>
</g>
</svg>
